<svg id="Layer_1" enable-background="new 0 0 504.5 504.5" height="512" viewBox="0 0 504.5 504.5" width="512" xmlns="http://www.w3.org/2000/svg"><g><g><g><g><g><path d="m24.253 504.5c-5.523 0-10-4.477-10-10v-113.517c0-26.722 17.099-50.462 42.484-58.984l19.778-6.64 19.669-1.909 12.418-8.863 29.25-9.819 10.187-.73c2.115-.71 3.027-4.081 4.751-5.361 5.173-3.842 8.379-9.963 8.379-16.643v-33.781h92.525v33.781c0 8.907 3.831 25.306 12.292 28.147l40.275 4.407 51.865 17.411c25.385 8.522 42.484 32.262 42.484 58.984v113.517c0 5.523-4.477 10-10 10h-52.262l-130.917-15-130.917 15z" fill="#f9f4fb"/></g></g><g><path d="m242.304 308.187 85.822 28.811c25.385 8.522 42.484 32.262 42.484 58.984v108.518h20c5.523 0 10-4.477 10-10v-113.518c0-26.722-17.099-50.462-42.484-58.984l-81.169-27.249-11.211.33c-2.174-.73-2.055-5.179-3.819-6.514z" fill="#dbd8ea"/></g><g><g><path d="m150.186 295.252c2.115-.71.88-5.295 2.604-6.576 5.173-3.842 8.379-9.963 8.379-16.643v-33.781h77.525v33.781c0 8.907 20.7 16.821 29.161 19.661l-60.424 43.138z" fill="#f1ccbd"/></g></g><path d="m261.936 288.553c-2.499-1.894-4.571-4.34-5.993-7.134-1.448-2.846-2.25-6.046-2.25-9.386v-33.781h-30v48.781c0 8.907 5.7 16.821 14.161 19.661l6.114 2.052z" fill="#eaad9c"/><g fill="#cecbe1"><path d="m163.545 320.461c2.93 2.928 7.679 2.93 10.607 0 2.929-2.93 2.929-7.678 0-10.607l-21.26-21.26c-1.75 1.317-3.727 2.375-5.885 3.1l-9.156 3.073z"/><path d="m251.582 320.124 25.375-25.375-9.101-3.055c-2.176-.73-4.165-1.801-5.925-3.133l-20.955 20.955c-2.929 2.93-2.929 7.678 0 10.607 2.927 2.931 7.676 2.929 10.606.001z"/></g><path d="m76.515 504.5v-68.594c0-3.982 1.195-7.861 3.411-11.169 5.944-8.873 14.459-24.831 15.841-46.221 2.156-33.363-14.529-56.925-19.252-63.156 10.696-3.591 21.391-7.181 32.087-10.772l2.622 8.341c17.904 56.963 51.198 107.873 96.208 147.109 45.01-39.236 78.304-90.145 96.208-147.109l2.622-8.341c10.696 3.591 21.391 7.181 32.087 10.772-4.723 6.231-21.408 29.793-19.252 63.156 1.382 21.39 9.897 37.348 15.841 46.221 2.216 3.308 3.411 7.187 3.411 11.169v68.594z" fill="#4f6d8f"/><g><path d="m111.511 104.454 191.841 15v-75.206c0-24.438-19.856-44.248-44.35-44.248h-103.142c-24.494 0-44.35 19.81-44.35 44.248v60.206z" fill="#c6855b"/><path d="m259.002 0h-30c24.494 0 44.35 19.811 44.35 44.248v72.861l30 2.346v-75.207c0-24.437-19.856-44.248-44.35-44.248z" fill="#c17e4e"/><path d="m309.966 161.736h-6.614v-37.033h6.614c10.226 0 18.517 8.29 18.517 18.517-.001 10.225-8.291 18.516-18.517 18.516z" fill="#f1ccbd"/><path d="m208.391 268.094c16.555 0 31.171 1.065 44.762-6.302 29.901-16.206 50.199-47.813 50.199-84.15v-73.188c-16.51 1.992-43.073 3.084-74.002-5.224-22.601-6.071-40.307-15.221-52.695-22.974-1.513-.947-3.468-.784-4.787.418-5.775 5.263-13.912 11.55-24.605 16.926-14.137 7.107-27.07 9.769-35.752 10.855v73.188c0 36.117 20.053 67.561 49.657 83.854 13.719 7.549 47.223 6.597 47.223 6.597z" fill="#f1ccbd"/><g><path d="m273.352 105.761v71.882c.203 6.491.506 37.889-23.267 62.483-22.117 22.881-56.517 31.023-88.916 21.369 9.261 4.955 21.844 9.956 37.173 11.421 3.161.302 6.197.431 9.09.427 52.975 0 95.92-42.846 95.92-95.7v-73.188c-7.903.953-18.114 1.697-30 1.306z" fill="#eaad9c"/></g><g><g><path d="m163.681 180.529c-4.143 0-7.5-3.357-7.5-7.5v-15.442c0-4.143 3.357-7.5 7.5-7.5s7.5 3.357 7.5 7.5v15.442c0 4.143-3.358 7.5-7.5 7.5z" fill="#455e7e"/></g><g><path d="m251.182 180.529c-4.143 0-7.5-3.357-7.5-7.5v-15.442c0-4.143 3.357-7.5 7.5-7.5s7.5 3.357 7.5 7.5v15.442c0 4.143-3.358 7.5-7.5 7.5z" fill="#455e7e"/></g></g><g><path d="m207.426 230.343c-.363 0-.729-.006-1.101-.02-7.6-.271-13.306-3.241-16.754-5.684-3.38-2.395-4.18-7.075-1.785-10.455s7.074-4.181 10.455-1.785c1.458 1.032 4.517 2.786 8.621 2.934 4.605.162 8.11-1.77 9.765-2.938 3.383-2.392 8.063-1.587 10.453 1.795 2.392 3.382 1.588 8.063-1.795 10.453-3.065 2.169-9.367 5.7-17.859 5.7z" fill="#eaad9c"/></g><path d="m104.897 161.736h6.614v-37.033h-6.614c-10.226 0-18.517 8.29-18.517 18.517 0 10.225 8.29 18.516 18.517 18.516z" fill="#eaad9c"/></g></g><path d="m199.932 453.281v51.219h15v-51.22c-2.464 2.287-4.961 4.543-7.5 6.757-2.54-2.213-5.036-4.469-7.5-6.756z" fill="#455e7e"/><g><path d="m207.431 334.832 39.962 12.999c2.527.822 5.12-1.062 5.12-3.719v-33.225c0-2.657-2.593-4.541-5.12-3.719l-39.962 12.999-39.962-12.999c-2.527-.822-5.12 1.062-5.12 3.719v33.225c0 2.657 2.593 4.541 5.12 3.719.001 0 39.962-12.999 39.962-12.999z" fill="#4f6d8f"/><circle cx="207.431" cy="327.5" fill="#455e7e" r="17.109"/></g><g fill="#cfcce3"><circle cx="207.431" cy="368.5" r="7.5"/><circle cx="207.431" cy="398.5" r="7.5"/><circle cx="207.431" cy="428.5" r="7.5"/></g></g><g><g><path d="m255.982 415.252h224.731c5.266 0 9.534-4.269 9.534-9.534v-21.792c0-5.266-4.269-9.534-9.534-9.534h-224.731c-5.266 0-9.534 4.269-9.534 9.534v21.792c0 5.265 4.268 9.534 9.534 9.534z" fill="#cfcce3"/><path d="m480.713 374.391h-30c5.266 0 9.534 4.269 9.534 9.534v21.792c0 5.265-4.269 9.534-9.534 9.534h30c5.266 0 9.534-4.269 9.534-9.534v-21.792c0-5.265-4.268-9.534-9.534-9.534z" fill="#b4add5"/><circle cx="368.347" cy="262.026" fill="#dbd8ea" r="23.154"/><path d="m368.347 272.241c56.04 0 101.47 45.429 101.47 101.47v.681h-202.939v-.681c0-56.041 45.429-101.47 101.469-101.47z" fill="#dbd8ea"/><path d="m368.347 272.241c-5.097 0-10.105.38-15 1.106 48.927 7.25 86.47 49.421 86.47 100.364v.681h30v-.681c0-56.041-45.429-101.47-101.47-101.47z" fill="#cfcce3"/></g><path d="m348.016 444.083h40.662c9.537 0 17.269-7.731 17.269-17.269v-19.473c0-3.822-3.099-6.921-6.921-6.921h-61.356c-3.823 0-6.921 3.099-6.921 6.921v19.473c-.001 9.538 7.73 17.269 17.267 17.269z" fill="#f1ccbd"/><path d="m399.025 400.42h-30c3.823 0 6.921 3.099 6.921 6.921v19.473c0 9.537-7.731 17.269-17.269 17.269h30c9.537 0 17.269-7.731 17.269-17.269v-19.473c.001-3.822-3.098-6.921-6.921-6.921z" fill="#eaad9c"/></g></g></svg>