<svg id="Layer_1" enable-background="new 0 0 512 512" height="512" viewBox="0 0 512 512" width="512" xmlns="http://www.w3.org/2000/svg"><path d="m318.545 250.95c6.735-13.003 10.958-24.775 13.161-35.369l-35.505 1.246c14.154 15.292 22.344 34.123 22.344 34.123z"/><path d="m170.604 192.956c6.513-.462 12.576-2.374 17.901-5.393 9.171 7.555 30.197 20.295 60.575 11.519 1.764-.51 3.5-.873 5.213-1.121-2.111-4.263-3.379-9.029-3.557-14.093-.669-19.059 14.24-35.052 33.299-35.721l19.51-.684c-11.74-6.135-25.164-8.393-36.868-7.069-28.436 3.216-58.315-13.466-71.531-22.049-2.158-1.842-4.502-3.465-6.993-4.847-6.946-3.854-15.045-5.814-23.559-5.21-23.38 1.66-40.988 21.958-39.329 45.339 1.66 23.38 21.958 40.989 45.339 39.329z"/><path d="m245.434 212.706c-11.646-3.281-23.746 3.497-27.027 15.143l-30.046 106.608 3.011-92.626c2.646-15.744-8.134-31.645-26.117-33.346l-28.83-4.748c-14.969-1.416-28.626 8.95-31.112 23.779l-15.557 50.874 13.846-.837 24.973-23.427-23.72 35.707-68.501 4.141c-10.6.641-18.673 9.753-18.033 20.354.638 10.552 9.704 18.675 20.354 18.033l78.059-4.718c6.019-.364 11.519-3.531 14.856-8.554l29.019-43.684-18.745 50.508c-5.871 15.818-22.706 13.57-24.386 14.04l-52.954 3.201 26.502 38.978c1.81 2.661 1.119 6.285-1.542 8.095-1.003.682-2.143 1.009-3.271 1.009-1.865 0-3.696-.893-4.824-2.551l-30.204-44.423-12.621 3.259c-9.142 2.36-15.923 10.051-17.12 19.417l-15.213 119.061c-1.762 13.787 8.975 26.001 22.916 26.001 11.441 0 21.371-8.505 22.859-20.152l9.63-75.365h53.153v48.091c-28.122 5.032-50.854 22.375-59.665 36.411-3.007 4.79.466 11.015 6.121 11.015h138.951c5.655 0 9.128-6.225 6.121-11.015-8.811-14.036-31.543-31.38-59.665-36.411v-48.091h47.524c9.81 0 18.424-6.522 21.085-15.964l45.316-160.786c3.282-11.644-3.498-23.745-15.143-27.027z"/><path d="m505.755 326.724-38.01-207.734c-2.309-12.621-12.492-21.698-24.386-21.698-16.965 0-27.716 0-43.001 0-7.909 0-15.068 4.057-19.656 10.481l-4.452-.033-33.351-18.52c-.902 1.719-1.973 3.34-3.235 4.822-4.749 5.576-11.557 8.903-18.837 9.246.622 5.515-.513 11.15-3.317 16.052l44.283 24.59c.079.044.161.081.24.124 2.767 1.487 5.854 2.283 8.998 2.306l5.129.038-19.878 14.428-71.713 2.516c-10.669.374-19.014 9.326-18.64 19.995.378 10.79 9.465 19.025 19.995 18.64l77.613-2.722c3.845-.135 7.562-1.414 10.677-3.674l50.157-36.404-41.227 48.707c-6.849 8.091-15.896 6.046-19.073 6.564l-5.599.196-20.508 112.081c-1.296 7.083 3.716 13.666 10.368 13.666h16.645l-9.646 36.411c-.457 1.723-.725 3.492-.801 5.273l-4.437 104.178c-.58 13.627 9.996 25.145 23.623 25.726.359.015.714.023 1.069.023 13.155-.001 24.092-10.378 24.657-23.647l4.323-101.497 12.309-46.466h9.44v50.115c0 1.916.223 3.825.664 5.689l22.913 96.794c3.144 13.278 16.456 21.485 29.722 18.344 13.273-3.142 21.486-16.449 18.344-29.722l-22.249-93.987v-47.232h20.478c6.615-.004 11.667-6.574 10.369-13.669z"/><ellipse cx="394.559" cy="42.654" rx="42.654" ry="42.654" transform="matrix(.383 -.924 .924 .383 204.16 390.856)"/><path d="m248.931 66.726 35.172 13.752 6.04 10.247c-1.272.369-2.522.881-3.715 1.584-7.708 4.541-10.273 14.46-5.728 22.171 2.196 3.726 5.712 6.373 9.899 7.456 6.219 1.607 12.496-.62 16.369-5.167 4.353-5.111 5.226-12.631 1.63-18.732l-6.113-10.372 11.213 4.384c6.566 2.567 13.859.546 18.233-4.591 7.265-8.531 3.835-21.552-6.441-25.569-8.334-3.258-17.718.848-20.977 9.184-.499 1.277-.812 2.592-.978 3.918l-11.073-4.329-19.175-32.534c-3.429-5.817-10.906-7.718-16.687-4.311l17.48 29.658-32.063-12.536c-2.449 6.267.645 13.336 6.914 15.787zm70.662 6.236c2.808 0 4.762 2.831 3.732 5.465-1.293 3.308-5.967 3.418-7.398.148-1.16-2.646.782-5.613 3.666-5.613zm-27.997 30.701c1.782-2.093 5.106-1.806 6.503.561.543.922.695 1.999.427 3.035-.886 3.432-5.513 4.11-7.327 1.032-.903-1.532-.66-3.386.397-4.628z"/></svg>