<?xml version="1.0" encoding="iso-8859-1"?>
<!-- Generator: Adobe Illustrator 19.0.0, SVG Export Plug-In . SVG Version: 6.00 Build 0)  -->
<svg version="1.1" id="Capa_1" xmlns="http://www.w3.org/2000/svg" xmlns:xlink="http://www.w3.org/1999/xlink" x="0px" y="0px"
	 viewBox="0 0 512 512" style="enable-background:new 0 0 512 512;" xml:space="preserve">
<g>
	<g>
		<rect x="225" y="158" width="92" height="30"/>
	</g>
</g>
<g>
	<g>
		<path d="M464.001,188c-3.541-6.944-7.57-13.571-12.001-19.883V53h-15c-15.72,0-31.057,3.524-45,10.141V38h-15
			c-40.785,0-77.667,23.715-94.888,60H225c-69.824,0-129.653,43.598-153.705,105H60c-33.084,0-60,26.916-60,60s26.916,60,60,60
			h11.29c3.106,7.967,6.821,15.705,11.155,23.122c12.771,21.855,30.488,40.562,51.556,54.521V474h86.205l18.158-46h65.273l18.158,46
			H408v-73.353c9.921-6.571,19.119-14.206,27.425-22.767L512,299.088V188H464.001z M60,293c-16.542,0-30-13.458-30-30
			s13.458-30,30-30h2.741C60.946,242.732,60,252.757,60,263c0,10.105,0.948,20.145,2.766,30H60z M392,98.007
			c8.909-6.691,19.151-11.289,30-13.498v51.195c-9.199-7.581-19.231-14.21-30-19.703V98.007z M482,286.912l-68.098,70.069
			c-8.471,8.731-18.064,16.279-28.516,22.435L378,383.767V444h-35.795l-18.158-46H217.953l-18.158,46H164v-60.238l-7.389-4.351
			C115.524,355.215,90,310.609,90,263c0-74.439,60.561-135,135-135h77.735l3.535-10.001c8.87-25.094,30.311-43.279,55.729-48.481
			v65.79l8.993,3.93c31.313,13.685,56.092,38.463,69.771,69.769l3.93,8.994H482V286.912z"/>
	</g>
</g>
<g>
	<g>
		<rect x="362" y="188" width="30" height="30"/>
	</g>
</g>
<g>
</g>
<g>
</g>
<g>
</g>
<g>
</g>
<g>
</g>
<g>
</g>
<g>
</g>
<g>
</g>
<g>
</g>
<g>
</g>
<g>
</g>
<g>
</g>
<g>
</g>
<g>
</g>
<g>
</g>
</svg>
