<svg id="bold" height="512" viewBox="0 0 24 24" width="512" xmlns="http://www.w3.org/2000/svg"><path d="m22.25 4h-2.36c-.14.55-.41 1.08-.8 1.52l-.42.48h3.33v12h-20v-12h3.33l-.42-.48c-.39-.44-.66-.97-.8-1.52h-2.36c-.96 0-1.75.79-1.75 1.75v12.5c0 .96.79 1.75 1.75 1.75h8.25v2h-2c-.55 0-1 .45-1 1s.45 1 1 1h8c.55 0 1-.45 1-1s-.45-1-1-1h-2v-2h8.25c.96 0 1.75-.79 1.75-1.75v-12.5c0-.96-.79-1.75-1.75-1.75z"/><g><path d="m12 6.75c-.966 0-1.785.615-2.103 1.472l1.132 1.303c.013.018.026.035.041.052.234.269.573.423.93.423s.696-.154.93-.423c.015-.017.029-.034.042-.052l1.131-1.303c-.318-.857-1.137-1.472-2.103-1.472z"/><path d="m12 3.5c-1.769 0-3.354.805-4.409 2.066l1.247 1.436c.666-1.049 1.83-1.752 3.162-1.752s2.496.703 3.162 1.752l1.247-1.436c-1.056-1.261-2.64-2.066-4.409-2.066z"/><path d="m6.602 4.427c1.329-1.485 3.253-2.427 5.398-2.427s4.069.942 5.398 2.427l.814-.937c.263-.302.241-.758-.049-1.035-1.661-1.583-3.85-2.455-6.163-2.455s-4.502.872-6.163 2.455c-.29.276-.312.733-.049 1.035z"/></g></svg>