<svg height="511pt" viewBox="0 0 511.99998 511" width="511pt" xmlns="http://www.w3.org/2000/svg"><path d="m291.160156 405.421875-97.601562 4.246094c-7.488282 3.53125-10.695313 12.464843-7.164063 19.964843 8.070313 17.109376-3.761719 43.863282-17.148437 57.25-4.292969 4.292969-5.582032 10.738282-3.253906 16.351563 2.316406 5.609375 7.792968 9.257813 13.859374 9.257813 51.5625 0 105.097657-39.175782 120.960938-88.1875 2.550781-7.882813-1.769531-16.335938-9.652344-18.882813zm0 0" fill="#5bc980"/><path d="m153.230469 420.878906-34.367188 33.945313c-13.367187 13.363281-54.308593 22.058593-71.277343 25.027343-.851563.425782-1.699219.425782-2.757813.214844-4.03125.210938-7.636719-1.273437-10.609375-4.242187l-.210938-.214844c-3.394531-3.390625-4.878906-8.269531-3.820312-13.152344 2.972656-16.96875 11.667969-57.910156 25.03125-71.273437l33.945312-34.367188c5.9375-5.515625 15.695313-5.519531 21.425782.210938l42.425781 42.425781c5.730469 5.730469 5.726563 15.488281.214844 21.425781zm0 0" fill="#7fe881"/><path d="m490.734375 97.796875c7.425781-29.058594 3.605469-52.816406-11.242187-67.242187-.214844-.210938-.214844-.210938-.214844-.210938-14.425782-14.851562-38.183594-18.246094-66.820313-10.820312-23.335937 5.9375-46.246093 18.242187-60.035156 32.03125-9.757813 9.757812-14.851563 19.941406-14.425781 30.972656-.210938 18.878906 14.636718 33.304687 29.910156 48.578125l11.03125 11.03125c15.273438 15.273437 29.699219 30.121093 48.578125 29.910156 10.820313.210937 21.425781-4.878906 30.972656-14.425781 13.792969-13.789063 26.09375-36.699219 32.246094-59.824219zm0 0" fill="#7fe881"/><path d="m153.230469 420.878906-34.367188 33.945313c-13.367187 13.363281-54.308593 22.058593-71.277343 25.027343-.851563.425782-1.699219.425782-2.757813.214844-4.03125.210938-7.636719-1.273437-10.609375-4.242187l-.210938-.214844 97.582032-97.582031 21.425781 21.425781c5.730469 5.730469 5.726563 15.488281.214844 21.425781zm0 0" fill="#5bc980"/><path d="m458.488281 157.621094c-9.546875 9.546875-20.152343 14.636718-30.972656 14.425781-18.878906.210937-33.304687-14.636719-48.578125-29.910156l-5.726562-5.726563 106.066406-106.066406s0 0 .214844.210938c14.847656 14.425781 18.667968 38.183593 11.242187 67.242187-6.152344 23.125-18.453125 46.035156-32.246094 59.824219zm0 0" fill="#5bc980"/><path d="m276.9375 44.011719-4.394531-2.636719c-63.019531-37.808594-135.917969-49.273438-208.0625-34.871094-6.28125 1.257813-11.074219 6.371094-11.921875 12.714844-.851563 6.355469 2.429687 12.539062 8.15625 15.410156 35.6875 17.839844 66.117187 42.515625 90.667968 74.011719 2.960938 3.808594 7.382813 5.785156 11.851563 5.785156 3.222656 0 6.460937-1.039062 9.199219-3.164062l109.644531-46.671875c4.261719-7.105469 1.964844-16.316406-5.140625-20.578125zm0 0" fill="#7fe881"/><path d="m468.703125 237.53125-2.636719-4.394531c-4.25-7.074219-13.464844-9.390625-20.582031-5.140625l-46.671875 109.644531c-5.082031 6.53125-3.925781 15.953125 2.625 21.050781 31.492188 24.550782 59.101562 58.78125 76.941406 94.464844 2.566406 5.125 7.792969 8.289062 13.417969 8.289062.660156 0 1.320313-.042968 1.992187-.128906 6.34375-.851562 11.457032-5.640625 12.71875-11.925781 14.414063-72.054687.003907-148.824219-37.804687-211.859375zm0 0" fill="#5bc980"/><path d="m85.890625 208.925781c-49.21875 15.757813-85.890625 65.355469-85.890625 117.078125 0 6.066406 3.648438 11.542969 9.257812 13.859375 1.859376.773438 3.808594 1.140625 5.742188 1.140625 3.894531 0 7.734375-1.523437 10.605469-4.394531 13.460937-13.460937 37.679687-21.21875 54.761719-13.074219 7.527343 3.574219 16.449218.378906 19.996093-7.078125l4.378907-97.820312c-2.519532-7.882813-10.984376-12.21875-18.851563-9.710938zm0 0" fill="#7fe881"/><path d="m374.273438 397.96875c-40.304688 26.730469-86.765626 40.941406-134.070313 42.003906-.847656.421875-1.910156.636719-2.757813.636719-.632812.210937-1.273437 0-1.910156-.210937-.421875 0-1.480468.210937-1.90625.210937-20.367187 0-41.367187-2.332031-61.308594-7.425781l-67.457031-16.96875c-2.757812-.636719-5.09375-2.121094-7-4.03125l-.214843-.210938c-1.695313-1.699218-3.179688-4.03125-3.605469-6.578125l-17.183594-67.671875c-5.089844-20.363281-7-41.363281-7.210937-61.941406v-.425781c-.210938-1.910157-.210938-4.03125.425781-5.9375 1.273437-47.097657 15.273437-93.765625 42.003906-133.644531 9.332031-14.003907 20.152344-26.941407 31.816406-38.609376v-.425781l.214844.210938c11.453125-11.453125 24.179687-22.058594 38.183594-31.394531 35.847656-23.96875 80.183593-29.273438 119.640625-17.820313 1.0625.210937 2.121094.425781 2.96875 1.273437 21.636718 6.367188 41.789062 18.03125 58.339844 34.578126l63.214843 63.21875c16.335938 16.332031 27.578125 36.0625 34.578125 57.0625.847656 1.695312 1.0625 3.179687 1.484375 4.878906 11.242188 39.246094 5.9375 83.15625-18.03125 119.007812-19.089843 28.003906-42.425781 51.761719-70.214843 70.214844zm0 0" fill="#714c2f"/><path d="m374.273438 397.96875c-40.304688 26.730469-86.765626 40.941406-134.070313 42.003906-.847656.421875-1.910156.636719-2.757813.636719-.632812.210937-1.273437 0-1.910156-.210937-.421875 0-1.480468.210937-1.90625.210937-20.367187 0-41.367187-2.332031-61.308594-7.425781l-67.457031-16.96875c-2.757812-.636719-5.09375-2.121094-7-4.03125l-.214843-.210938 296.988281-296.988281 31.824219 31.820313c16.332031 16.332031 27.574218 36.0625 34.578124 57.0625.847657 1.695312 1.058594 3.179687 1.484376 4.878906 11.242187 39.246094 5.9375 83.15625-18.03125 119.007812-19.09375 28.003906-42.429688 51.761719-70.21875 70.214844zm0 0" fill="#523522"/><path d="m380.226562 354.550781c-7.5 6.597657-14.699218 13.199219-22.796874 18.597657-30.601563 20.402343-65.703126 32.402343-101.703126 36.003906l18-98.402344 49.800782-13.203125zm0 0" fill="#714c2f"/><path d="m419.226562 311.347656c-5.097656 7.800782-11.699218 14.703125-17.996093 21.902344l-56.402344-57.003906 12.898437-48 78.300782-1.199219c5.402344 28.5.300781 58.800781-16.800782 84.300781zm0 0" fill="#714c2f"/><g fill="#895d3c"><path d="m224.929688 410.273438c-15.0625-.636719-30.335938-2.757813-45.398438-6.363282l-58.761719-14.636718v-.425782l-14.636719-58.335937c-3.605468-15.0625-5.726562-30.335938-6.363281-45.398438l106.492188-19.515625 38.394531 38.398438zm0 0"/><path d="m426.03125 197.289062-73.609375 1.0625-40.515625-40.519531.847656-73.820312c10.394532 5.300781 20.789063 12.304687 29.488282 21l63.003906 63.003906c8.695312 8.699219 15.484375 18.878906 20.785156 29.273437zm0 0"/><path d="m315.722656 268.566406-50.699218 13.367188-36.910157-36.914063 13.363281-50.699219 50.699219-13.789062 37.335938 37.335938zm0 0"/><path d="m283.027344 74.042969-1.199219 78.304687-48 12.898438-57-56.699219c7.199219-6 14.097656-12.601563 21.898437-17.703125 25.5-17.097656 55.800782-22.199219 84.300782-16.800781zm0 0"/><path d="m212.527344 186.546875-13.199219 49.800781-98.402344 18c3.597657-36 15.601563-71.101562 36-101.703125 5.398438-8.398437 12.300781-15.597656 18.601563-22.796875zm0 0"/></g><path d="m246.355469 263.265625 64.277343-64.277344 18.878907 18.878907-13.789063 50.699218-50.699218 13.367188zm0 0" fill="#714c2f"/><path d="m352.421875 198.351562-20.574219-20.578124 41.574219-41.578126 31.820313 31.820313c8.699218 8.699219 15.488281 18.878906 20.789062 29.273437zm0 0" fill="#714c2f"/><path d="m224.929688 410.273438c-15.0625-.636719-30.335938-2.757813-45.398438-6.363282l-58.761719-14.636718v-.425782l104.371094-104.371094 19.515625 19.519532zm0 0" fill="#714c2f"/></svg>