<svg height="512pt" viewBox="0 0 512 512" width="512pt" xmlns="http://www.w3.org/2000/svg"><path d="m44.96875 511.625h375.722656v-180.867188h91.308594l-18.03125-122.171874c-8.429688-50.582032-53.21875-87.671876-104.496094-87.671876h-40.1875l-48.507812-24.253906v-9.292968c17.449218-6.1875 29.980468-22.859376 29.980468-42.398438 0-24.796875-20.171874-44.96875-44.96875-44.96875-24.792968 0-44.964843 20.171875-44.964843 44.96875h29.976562c0-8.265625 6.722657-14.992188 14.988281-14.992188 8.265626 0 14.988282 6.726563 14.988282 14.992188 0 8.261719-6.722656 14.988281-14.988282 14.988281h-14.988281v36.699219l-48.503906 24.253906h-40.191406c-51.207031 0-95.054688 37.042969-103.492188 87.675782l-18.035156 122.171874h90.3125v30.976563h-105.921875c-24.796875 0-44.96875 20.171875-44.96875 44.96875 0 11.507813 4.351562 22.015625 11.488281 29.976563-7.136719 7.960937-11.488281 18.46875-11.488281 29.980468 0 24.792969 20.171875 44.964844 44.96875 44.964844zm0-29.976562c-8.265625 0-14.992188-6.726563-14.992188-14.988282 0-8.265625 6.726563-14.992187 14.992188-14.992187h210.84375c8.265625 0 14.988281 6.726562 14.988281 14.992187 0 8.261719-6.722656 14.988282-14.988281 14.988282-7.894531 0-197.570312 0-210.84375 0zm375.722656-180.867188v-29.980469h52.160156l4.421876 29.980469zm-90.808594-156.054688c-4.113281 20.585938-22.320312 36.140626-44.09375 36.140626-21.773437 0-39.976562-15.558594-44.089843-36.140626l44.089843-22.046874zm-234.578124 156.054688 4.425781-29.980469h51.160156v29.980469zm55.585937-89.933594v29.976563h-46.734375l4.046875-27.441407c6.101563-36.21875 37.164063-62.492187 73.90625-62.492187h30.242187c6.964844 34.164063 37.246094 59.957031 73.441407 59.957031 36.191406 0 66.472656-25.792968 73.4375-59.957031h30.242187c36.71875 0 68.898438 26.855469 74.90625 62.492187l4.046875 27.441407h-47.734375v-29.976563h-29.976562v270.800782h-92.515625c1.664062-4.691407 2.578125-9.734376 2.578125-14.988282 0-11.511718-4.347656-22.019531-11.484375-29.980468 7.136719-7.960938 11.484375-18.46875 11.484375-29.976563 0-24.796875-20.171875-44.96875-44.964844-44.96875h-74.945312v-150.886719zm-105.921875 180.867188h210.84375c8.265625 0 14.988281 6.722656 14.988281 14.988281s-6.722656 14.988281-14.988281 14.988281h-210.84375c-8.265625 0-14.992188-6.722656-14.992188-14.988281s6.726563-14.988281 14.992188-14.988281zm0 0"/></svg>